<?xml version="1.0" standalone="no"?>
<!DOCTYPE svg PUBLIC "-//W3C//DTD SVG 20010904//EN"
 "http://www.w3.org/TR/2001/REC-SVG-20010904/DTD/svg10.dtd">
<svg version="1.0" xmlns="http://www.w3.org/2000/svg"
 width="2280.000000pt" height="1710.000000pt" viewBox="0 0 2280.000000 1710.000000"
 preserveAspectRatio="xMidYMid meet">

<g transform="translate(0.000000,1710.000000) scale(0.100000,-0.100000)"
fill="#000000" stroke="none">
<path d="M9185 15298 c-16 -24 -22 -38 -14 -31 15 12 53 73 46 73 -2 0 -17
-19 -32 -42z"/>
<path d="M9094 15173 c-75 -101 -256 -281 -362 -361 -46 -34 -79 -62 -74 -62
35 0 300 241 395 358 71 89 110 142 104 142 -2 0 -31 -35 -63 -77z"/>
<path d="M9490 15198 c-33 -46 -201 -230 -280 -307 -36 -35 -106 -95 -157
-133 -51 -37 -95 -73 -98 -79 -7 -11 113 73 179 125 54 43 355 365 372 398 19
37 13 35 -16 -4z"/>
<path d="M8629 15043 c-13 -16 -12 -17 4 -4 16 13 21 21 13 21 -2 0 -10 -8
-17 -17z"/>
<path d="M8584 14988 l-19 -23 23 19 c21 18 27 26 19 26 -2 0 -12 -10 -23 -22z"/>
<path d="M8529 14923 l-34 -38 38 34 c20 19 37 36 37 38 0 8 -8 0 -41 -34z"/>
<path d="M8445 14828 l-50 -53 53 50 c28 27 52 51 52 52 0 8 -9 -1 -55 -49z"/>
<path d="M8089 14713 c-13 -16 -12 -17 4 -4 16 13 21 21 13 21 -2 0 -10 -8
-17 -17z"/>
<path d="M9424 14690 c-6 -6 -62 -36 -124 -68 -82 -41 -120 -67 -139 -92 l-25
-35 39 37 c22 20 83 57 135 81 52 24 104 54 114 66 19 21 19 30 0 11z"/>
<path d="M9360 14183 c-14 -7 -38 -13 -55 -13 -63 -1 -108 -19 -144 -56 l-36
-38 37 32 c36 30 50 34 149 47 26 3 55 12 65 20 26 18 15 25 -16 8z"/>
<path d="M9107 13753 c-54 -38 -36 -42 20 -4 26 17 41 31 33 30 -8 0 -32 -12
-53 -26z"/>
<path d="M8970 13337 c-25 -23 -75 -65 -110 -94 -116 -92 -114 -90 -96 -118
16 -24 15 -26 -23 -60 -22 -20 -50 -44 -64 -55 -39 -31 -52 -74 -37 -119 23
-71 -14 -122 -242 -334 -35 -32 -88 -78 -118 -103 -92 -75 -91 -82 22 -110 70
-17 76 -22 56 -42 -6 -6 -10 -13 -7 -15 2 -3 67 15 144 39 77 24 176 51 220
59 44 8 103 19 130 25 65 14 526 38 635 33 466 -20 720 -47 1120 -118 173 -31
322 -58 330 -60 45 -14 365 -24 473 -15 228 19 451 98 627 223 77 55 259 227
279 266 8 14 -10 16 -182 16 -180 1 -197 2 -282 28 -49 15 -151 53 -225 83
-74 31 -190 78 -257 105 -252 103 -855 231 -1323 281 -179 19 -887 17 -1032
-3 -60 -8 -108 -13 -108 -10 0 2 27 35 61 73 33 37 59 68 57 68 -2 0 -23 -19
-48 -43z"/>
<path d="M14045 13253 c-160 -5 -377 -24 -495 -44 -247 -41 -414 -102 -645
-233 -130 -74 -136 -79 -182 -149 -100 -150 -316 -344 -479 -429 -117 -62
-274 -115 -414 -140 -30 -5 -120 -13 -200 -16 l-145 -7 0 -1100 c0 -605 2
-1153 4 -1217 l3 -118 202 0 c275 0 403 -12 539 -51 186 -52 266 -92 427 -215
104 -79 161 -136 235 -231 26 -35 49 -63 50 -63 1 0 1 676 -1 1503 -1 971 1
1524 8 1564 8 50 14 62 31 67 12 3 114 8 227 11 113 3 340 10 505 15 1029 33
1384 35 1600 10 50 -5 135 -14 190 -19 86 -7 137 -21 360 -96 231 -77 284 -99
471 -196 186 -96 234 -126 406 -256 195 -147 197 -149 375 -356 371 -433 579
-844 711 -1407 44 -185 58 -270 73 -445 21 -241 22 -401 4 -569 -39 -377 -57
-471 -147 -761 -68 -219 -93 -285 -160 -419 -113 -225 -292 -486 -511 -741
-113 -131 -347 -346 -470 -429 l-78 -54 44 -36 c165 -135 121 -255 -158 -431
-380 -240 -878 -377 -1511 -416 -259 -16 -940 -7 -1084 14 -367 54 -585 151
-669 299 l-29 50 -26 -79 c-144 -430 -546 -718 -1281 -916 -71 -19 -146 -38
-165 -41 -142 -25 -174 -33 -177 -43 -6 -16 88 -22 487 -27 289 -5 742 -29
945 -51 39 -4 766 -48 1015 -61 557 -28 1248 -33 1480 -8 275 28 536 76 725
133 71 22 158 46 192 55 63 17 256 90 448 170 183 77 506 261 745 425 173 118
391 305 592 507 108 110 223 231 256 269 132 155 480 674 540 805 11 25 43 93
71 153 146 311 303 800 346 1076 9 53 20 116 25 141 5 25 12 70 15 100 3 30
12 120 21 200 18 178 17 665 -1 792 -7 47 -16 107 -19 134 -38 292 -62 413
-116 604 -69 238 -115 372 -200 575 -280 674 -756 1298 -1339 1755 -74 58
-345 249 -349 245 -15 -14 -34 -137 -42 -269 -11 -186 -20 -206 -91 -206 -53
0 -121 27 -359 143 -712 347 -1186 481 -1860 527 -128 9 -715 11 -965 3z"/>
<path d="M8005 11756 c-27 -12 -129 -35 -182 -41 -41 -6 -84 -17 -80 -21 10
-10 214 30 267 52 30 13 48 23 40 23 -8 0 -28 -6 -45 -13z"/>
<path d="M9121 11121 c-44 -41 -38 -48 9 -10 22 18 40 34 40 36 0 11 -22 -1
-49 -26z"/>
<path d="M9107 10849 c-31 -28 -62 -60 -69 -72 -6 -11 24 10 66 48 42 37 76
70 76 72 0 11 -22 -3 -73 -48z"/>
<path d="M7018 10553 c7 -3 16 -2 19 1 4 3 -2 6 -13 5 -11 0 -14 -3 -6 -6z"/>
<path d="M9038 10495 c-26 -24 -62 -42 -122 -61 -48 -14 -89 -31 -92 -36 -4
-6 1 -8 12 -4 165 50 183 58 213 91 27 32 36 46 29 45 -2 0 -20 -16 -40 -35z"/>
<path d="M7302 10307 c22 -8 160 -6 151 3 -2 3 -42 5 -88 5 -51 0 -76 -3 -63
-8z"/>
<path d="M8780 10233 c0 -25 -82 -102 -131 -123 -47 -20 -67 -22 -188 -20 -75
1 -143 1 -151 0 -36 -6 114 -18 205 -16 87 1 107 5 150 28 28 14 59 37 71 50
31 35 56 79 50 86 -3 3 -6 1 -6 -5z"/>
<path d="M7780 10061 c18 -13 147 -54 215 -69 119 -26 345 -26 345 0 0 6 -8 7
-17 3 -32 -12 -246 -6 -323 9 -41 8 -102 24 -135 36 -85 30 -104 35 -85 21z"/>
<path d="M6565 10030 l-40 -7 35 -1 c19 -1 42 3 50 8 16 11 14 11 -45 0z"/>
<path d="M6461 9836 c-13 -13 -49 -34 -81 -46 -53 -20 -69 -21 -177 -15 l-119
7 -24 -78 c-21 -66 -35 -90 -89 -151 -57 -64 -69 -73 -99 -73 -33 0 -34 -1
-28 -31 5 -28 -1 -39 -52 -98 -75 -87 -172 -177 -198 -185 -12 -4 -32 -30 -49
-67 -24 -50 -38 -66 -85 -94 -30 -18 -91 -59 -135 -91 -66 -47 -95 -61 -165
-79 -81 -20 -85 -23 -91 -53 -3 -17 -23 -59 -42 -92 l-36 -60 14 -88 c17 -102
87 -376 146 -572 38 -124 91 -263 229 -600 28 -69 63 -154 77 -190 25 -62 278
-486 366 -615 129 -187 360 -450 567 -644 291 -273 631 -492 1058 -682 201
-90 282 -120 470 -174 125 -37 234 -68 242 -70 8 -2 116 -21 240 -42 l225 -37
530 0 c372 -1 561 3 635 12 58 7 267 24 465 37 354 24 611 55 803 96 53 11
147 29 207 40 303 56 616 155 835 263 298 148 463 291 590 512 48 85 65 130
98 264 14 58 16 204 18 1275 2 727 -1 1240 -7 1285 -21 161 -92 365 -175 497
-144 231 -388 429 -629 508 -147 49 -366 74 -593 67 -93 -3 -103 -5 -97 -20 4
-9 10 -40 12 -68 13 -137 -107 -215 -399 -259 -221 -34 -333 -21 -747 85 -190
49 -199 53 -400 157 -193 100 -206 105 -236 94 -43 -15 -145 -13 -175 4 -18
10 -60 14 -147 15 l-123 0 0 -98 c0 -289 123 -609 315 -819 203 -221 462 -356
770 -399 28 -4 266 -8 530 -9 264 -1 514 -3 556 -4 l76 -1 6 -527 c3 -291 2
-744 -1 -1008 l-7 -480 -60 -13 c-33 -7 -114 -22 -180 -33 -66 -11 -129 -22
-140 -24 -17 -4 -20 -11 -17 -54 12 -165 -229 -341 -597 -436 -184 -48 -345
-66 -631 -72 -688 -15 -1221 87 -1693 323 -204 102 -377 231 -407 304 -27 65
2 109 149 230 l43 36 -84 56 c-340 231 -770 742 -986 1174 -76 151 -158 386
-177 502 -4 20 -15 82 -25 137 -36 192 -41 236 -59 490 -5 73 -16 146 -25 166
-8 20 -12 46 -9 58 3 13 -1 29 -12 41 -14 16 -16 33 -11 127 3 59 10 155 15
213 6 58 10 113 11 122 0 9 12 30 26 47 31 37 27 41 -5 7z"/>
<path d="M4790 8591 c31 -28 41 -31 102 -31 37 0 68 3 68 8 0 4 -29 5 -65 4
-58 -3 -70 -1 -103 23 l-37 26 35 -30z"/>
<path d="M2597 8565 c-26 -14 -104 -68 -173 -119 -146 -107 -231 -154 -300
-164 -27 -4 -42 -10 -34 -13 26 -11 117 19 184 60 36 22 118 79 183 127 64 48
136 95 160 106 40 18 53 28 35 28 -4 0 -29 -11 -55 -25z"/>
<path d="M4560 8339 l-106 -111 -62 4 c-77 4 -82 -7 -7 -17 51 -6 57 -4 92 24
45 36 205 212 192 211 -2 -1 -51 -51 -109 -111z"/>
<path d="M2394 8226 c-180 -162 -416 -332 -619 -445 -139 -78 -166 -85 -297
-86 -58 0 -104 -3 -101 -7 8 -15 198 -8 253 8 112 33 425 230 610 383 30 25
90 77 133 115 54 49 89 71 115 76 l37 8 -36 1 c-30 1 -45 -8 -95 -53z"/>
<path d="M4241 8229 c-55 -81 -191 -221 -248 -256 -47 -29 -62 -33 -139 -35
-75 -3 -88 -6 -98 -23 -10 -18 -10 -18 2 -3 12 15 26 16 92 11 76 -6 79 -5
138 31 33 20 88 67 122 104 72 77 185 222 173 222 -4 0 -23 -23 -42 -51z"/>
<path d="M2417 7952 c-170 -162 -361 -298 -622 -440 -148 -80 -223 -108 -318
-118 -37 -4 -67 -11 -67 -17 0 -11 88 -2 166 19 117 30 426 207 631 360 65 49
162 130 215 182 86 83 102 94 145 102 l48 8 -48 1 c-48 1 -49 0 -150 -97z"/>
<path d="M2624 7873 c-27 -43 -162 -201 -224 -263 -82 -82 -209 -186 -357
-293 -158 -113 -204 -137 -272 -140 -64 -3 -67 -17 -3 -17 64 0 122 29 277
140 235 168 373 294 501 456 106 134 109 137 154 132 21 -2 36 0 34 4 -3 5
-25 8 -48 8 -37 0 -47 -4 -62 -27z"/>
<path d="M3720 7860 c-6 -11 -8 -20 -6 -20 3 0 10 9 16 20 6 11 8 20 6 20 -3
0 -10 -9 -16 -20z"/>
<path d="M3156 7738 c-47 -51 -86 -97 -86 -103 0 -5 15 6 32 25 17 19 57 63
89 96 l59 62 61 1 c34 0 64 3 67 6 3 3 -26 5 -65 5 l-71 0 -86 -92z"/>
<path d="M3635 7782 c-70 -49 -143 -71 -236 -73 -31 0 -32 -1 -11 -9 15 -6 50
-4 104 6 62 12 94 24 137 54 49 33 91 70 80 70 -2 0 -35 -22 -74 -48z"/>
<path d="M2828 7693 c-9 -10 -28 -38 -43 -63 -42 -66 -247 -280 -350 -364
-143 -116 -149 -120 -187 -113 -31 6 -32 6 -14 -8 11 -8 24 -15 29 -15 66 0
441 352 532 498 l38 62 49 0 c30 0 47 4 43 10 -11 17 -80 12 -97 -7z"/>
<path d="M2974 7461 c-29 -40 -94 -81 -128 -81 -15 0 -17 -3 -8 -12 9 -9 23
-6 59 11 46 22 59 34 97 94 27 41 11 32 -20 -12z"/>
</g>
</svg>
